# xmcd
#
# Track frame offsets: 
#        179
#        10686
#        21044
#        29666
#        39872
#        48991
#        61193
#        72913
#        86622
#        98011
#        106945
#        117070
#
# Disc length: 1730 seconds
#
# Revision: 6
# Processed by: cddbd v1.5.2PL0 Copyright (c) Steve Scherf et al.
# Submitted via: ExactAudioCopyFreeDBPlugin 1.0
#
DISCID=8806c00c
DTITLE=JOHNNY CASH - 1958 - The Fabulous Johnny Cash (Columbia)
DYEAR=1958
DGENRE=Country
TTITLE0=Run softly, blue river
TTITLE1=Frankie's man, Johnny
TTITLE2=That's all over
TTITLE3=The troubadour
TTITLE4=One more ride
TTITLE5=That's enough
TTITLE6=I still miss someone
TTITLE7=Don't take your guns to town
TTITLE8=I'd rather die young
TTITLE9=Pickin' time
TTITLE10=Shepherd of my heart
TTITLE11=Supper-time
EXTD=
EXTT0=
EXTT1=
EXTT2=
EXTT3=
EXTT4=
EXTT5=
EXTT6=
EXTT7=
EXTT8=
EXTT9=
EXTT10=
EXTT11=
PLAYORDER=
